<svg width="33" height="26" viewBox="0 0 33 26" fill="none" xmlns="http://www.w3.org/2000/svg">
<path fill-rule="evenodd" clip-rule="evenodd" d="M1.30546 6.32124C1.09151 5.99318 0.642113 5.90054 0.321183 6.12162C-0.00687935 6.33557 -0.0996135 6.78488 0.121472 7.10581L1.48375 9.15263L3.54476 16.8835C4.07252 18.8732 5.88393 20.2639 7.94502 20.2639H17.1166C17.5088 20.2639 17.8298 19.943 17.8298 19.5507C17.8298 19.1585 17.5088 18.8376 17.1166 18.8376H7.94502C6.82533 18.8376 5.81278 18.2385 5.2565 17.3114L17.3091 16.0847C18.2434 15.992 18.9993 15.3073 19.1919 14.3945L19.955 10.7144C20.2332 9.38794 19.2133 8.13989 17.8583 8.13989H2.52497L1.30546 6.32124ZM4.76427 15.9278L3.06699 9.56624H17.8583C18.3147 9.56624 18.6499 9.97985 18.5572 10.422L17.7941 14.102C17.7299 14.4087 17.4803 14.637 17.1665 14.6655L4.76427 15.9278Z" fill="black"/>
<path fill-rule="evenodd" clip-rule="evenodd" d="M4.27936 23.8297C4.27936 22.6458 5.23502 21.6902 6.41889 21.6902C7.60277 21.6902 8.55843 22.6458 8.55843 23.8297C8.55843 25.0136 7.60277 25.9693 6.41889 25.9693C5.23502 25.9693 4.27936 25.0136 4.27936 23.8297ZM6.41889 23.1165C6.02665 23.1165 5.70572 23.4375 5.70572 23.8297C5.70572 24.222 6.02665 24.5429 6.41889 24.5429C6.81114 24.5429 7.13207 24.222 7.13207 23.8297C7.13207 23.4375 6.81114 23.1165 6.41889 23.1165Z" fill="black"/>
<path fill-rule="evenodd" clip-rule="evenodd" d="M13.5507 23.8297C13.5507 22.6458 14.5063 21.6902 15.6902 21.6902C16.8741 21.6902 17.8298 22.6458 17.8298 23.8297C17.8298 25.0136 16.8741 25.9693 15.6902 25.9693C14.5063 25.9693 13.5507 25.0136 13.5507 23.8297ZM15.6902 23.1165C15.298 23.1165 14.977 23.4375 14.977 23.8297C14.977 24.222 15.298 24.5429 15.6902 24.5429C16.0825 24.5429 16.4034 24.222 16.4034 23.8297C16.4034 23.4375 16.0825 23.1165 15.6902 23.1165Z" fill="black"/>
<circle cx="24" cy="9" r="9" fill="#6CB71D"/>
<path d="M22.8457 7.9082H23.8066C24.0527 7.9082 24.2539 7.86523 24.4102 7.7793C24.5703 7.68945 24.6895 7.56445 24.7676 7.4043C24.8457 7.24023 24.8848 7.04688 24.8848 6.82422C24.8848 6.65234 24.8477 6.49414 24.7734 6.34961C24.7031 6.20508 24.5938 6.08984 24.4453 6.00391C24.2969 5.91406 24.1074 5.86914 23.877 5.86914C23.7207 5.86914 23.5684 5.90234 23.4199 5.96875C23.2715 6.03125 23.1484 6.12109 23.0508 6.23828C22.957 6.35547 22.9102 6.49805 22.9102 6.66602H20.9297C20.9297 6.18164 21.0625 5.76758 21.3281 5.42383C21.5977 5.07617 21.9512 4.81055 22.3887 4.62695C22.8301 4.43945 23.3047 4.3457 23.8125 4.3457C24.418 4.3457 24.9492 4.43945 25.4062 4.62695C25.8633 4.81055 26.2188 5.08398 26.4727 5.44727C26.7305 5.80664 26.8594 6.25195 26.8594 6.7832C26.8594 7.07617 26.791 7.35156 26.6543 7.60938C26.5176 7.86719 26.3262 8.09375 26.0801 8.28906C25.834 8.48438 25.5449 8.63867 25.2129 8.75195C24.8848 8.86133 24.5254 8.91602 24.1348 8.91602H22.8457V7.9082ZM22.8457 9.37891V8.39453H24.1348C24.5605 8.39453 24.9492 8.44336 25.3008 8.54102C25.6523 8.63477 25.9551 8.77539 26.209 8.96289C26.4629 9.15039 26.6582 9.38281 26.7949 9.66016C26.9316 9.93359 27 10.248 27 10.6035C27 11.002 26.9199 11.3574 26.7598 11.6699C26.5996 11.9824 26.375 12.2461 26.0859 12.4609C25.7969 12.6758 25.459 12.8398 25.0723 12.9531C24.6855 13.0625 24.2656 13.1172 23.8125 13.1172C23.457 13.1172 23.1016 13.0703 22.7461 12.9766C22.3906 12.8789 22.0664 12.7305 21.7734 12.5312C21.4805 12.3281 21.2441 12.0703 21.0645 11.7578C20.8887 11.4414 20.8008 11.0645 20.8008 10.627H22.7812C22.7812 10.8066 22.8301 10.9707 22.9277 11.1191C23.0293 11.2637 23.1641 11.3789 23.332 11.4648C23.5 11.5508 23.6816 11.5938 23.877 11.5938C24.1191 11.5938 24.3242 11.5488 24.4922 11.459C24.6641 11.3652 24.7949 11.2402 24.8848 11.084C24.9746 10.9277 25.0195 10.7539 25.0195 10.5625C25.0195 10.2734 24.9707 10.043 24.873 9.87109C24.7793 9.69922 24.6406 9.57422 24.457 9.49609C24.2773 9.41797 24.0605 9.37891 23.8066 9.37891H22.8457Z" fill="white"/>
</svg>
